<svg width="20" height="20" viewBox="0 0 20 20" fill="none" xmlns="http://www.w3.org/2000/svg">
<path d="M3.06249 15.8333C2.53471 15.8333 2.12152 15.6563 1.82291 15.3021C1.5243 14.9479 1.41666 14.4583 1.49999 13.8333L2.49999 6.85417C2.6111 6.11806 2.95485 5.48612 3.53124 4.95834C4.10763 4.43056 4.76388 4.16667 5.49999 4.16667H14.5208C15.2569 4.16667 15.9132 4.43056 16.4896 4.95834C17.066 5.48612 17.4097 6.11806 17.5208 6.85417L18.5 13.8333C18.5833 14.4583 18.4757 14.9479 18.1771 15.3021C17.8785 15.6563 17.4653 15.8333 16.9375 15.8333C16.618 15.8333 16.3472 15.7813 16.125 15.6771C15.9028 15.5729 15.7153 15.4445 15.5625 15.2917L13.3958 13.125H6.60416L4.43749 15.2917C4.28471 15.4445 4.09721 15.5729 3.87499 15.6771C3.65277 15.7813 3.38193 15.8333 3.06249 15.8333ZM3.43749 14.5L6.06249 11.875H13.9375L16.5625 14.5C16.6319 14.5694 16.7569 14.632 16.9375 14.6875C17.0625 14.6875 17.1562 14.625 17.2187 14.5C17.2812 14.375 17.2986 14.25 17.2708 14.125L16.2708 7.06251C16.2014 6.57639 15.9965 6.18056 15.6562 5.87501C15.316 5.56945 14.9375 5.41667 14.5208 5.41667H5.47916C5.06249 5.41667 4.68402 5.56945 4.34374 5.87501C4.00346 6.18056 3.7986 6.57639 3.72916 7.06251L2.72916 14.125C2.70138 14.25 2.71874 14.375 2.78124 14.5C2.84374 14.625 2.93749 14.6875 3.06249 14.6875C3.15971 14.6875 3.28471 14.625 3.43749 14.5ZM14.5833 10.8333C14.8055 10.8333 15 10.75 15.1667 10.5833C15.3333 10.4167 15.4167 10.2222 15.4167 10C15.4167 9.77778 15.3333 9.58334 15.1667 9.41667C15 9.25001 14.8055 9.16667 14.5833 9.16667C14.3611 9.16667 14.1667 9.25001 14 9.41667C13.8333 9.58334 13.75 9.77778 13.75 10C13.75 10.2222 13.8333 10.4167 14 10.5833C14.1667 10.75 14.3611 10.8333 14.5833 10.8333ZM12.8125 8.12501C13.0347 8.12501 13.2292 8.04167 13.3958 7.87501C13.5625 7.70834 13.6458 7.51389 13.6458 7.29167C13.6458 7.06945 13.5625 6.87501 13.3958 6.70834C13.2292 6.54167 13.0347 6.45834 12.8125 6.45834C12.5903 6.45834 12.3958 6.54167 12.2292 6.70834C12.0625 6.87501 11.9792 7.06945 11.9792 7.29167C11.9792 7.51389 12.0625 7.70834 12.2292 7.87501C12.3958 8.04167 12.5903 8.12501 12.8125 8.12501ZM6.77082 10.7292C6.9236 10.7292 7.0486 10.6806 7.14582 10.5833C7.24305 10.4861 7.29166 10.3611 7.29166 10.2083V9.16667H8.33332C8.4861 9.16667 8.6111 9.11806 8.70832 9.02084C8.80555 8.92362 8.85416 8.79862 8.85416 8.64584C8.85416 8.49306 8.80555 8.36806 8.70832 8.27084C8.6111 8.17362 8.4861 8.12501 8.33332 8.12501H7.29166V7.08334C7.29166 6.93056 7.24305 6.80556 7.14582 6.70834C7.0486 6.61112 6.9236 6.56251 6.77082 6.56251C6.61805 6.56251 6.49305 6.61112 6.39582 6.70834C6.2986 6.80556 6.24999 6.93056 6.24999 7.08334V8.12501H5.20832C5.05555 8.12501 4.93055 8.17362 4.83332 8.27084C4.7361 8.36806 4.68749 8.49306 4.68749 8.64584C4.68749 8.79862 4.7361 8.92362 4.83332 9.02084C4.93055 9.11806 5.05555 9.16667 5.20832 9.16667H6.24999V10.2083C6.24999 10.3611 6.2986 10.4861 6.39582 10.5833C6.49305 10.6806 6.61805 10.7292 6.77082 10.7292Z" fill="#F1F1F1"/>
</svg>
