<svg width="20" height="20" viewBox="0 0 20 20" fill="none" xmlns="http://www.w3.org/2000/svg">
<path d="M9.14585 16.75L8.04169 15.7292C6.31946 14.1319 4.82641 12.6076 3.56252 11.1562C2.29863 9.70486 1.66669 8.18749 1.66669 6.60416C1.66669 5.35416 2.08683 4.30902 2.9271 3.46874C3.76738 2.62847 4.80558 2.20833 6.04169 2.20833C6.75002 2.20833 7.45141 2.37847 8.14585 2.71874C8.8403 3.05902 9.45835 3.61805 10 4.39583C10.6111 3.61805 11.2431 3.05902 11.8959 2.71874C12.5486 2.37847 13.2361 2.20833 13.9584 2.20833C15.1945 2.20833 16.2327 2.62847 17.0729 3.46874C17.9132 4.30902 18.3334 5.35416 18.3334 6.60416C18.3334 8.18749 17.7014 9.70486 16.4375 11.1562C15.1736 12.6076 13.6806 14.1319 11.9584 15.7292L10.8542 16.75C10.6181 16.9722 10.3334 17.0833 10 17.0833C9.66669 17.0833 9.38196 16.9722 9.14585 16.75ZM9.45835 5.77083C9.08335 5.09027 8.5903 4.53472 7.97919 4.10416C7.36808 3.67361 6.72224 3.45833 6.04169 3.45833C5.12502 3.45833 4.37502 3.75347 3.79169 4.34374C3.20835 4.93402 2.91669 5.68749 2.91669 6.60416C2.91669 7.40972 3.18752 8.25347 3.72919 9.13541C4.27085 10.0174 4.91669 10.875 5.66669 11.7083C6.41669 12.5417 7.19446 13.316 8.00002 14.0312C8.80558 14.7465 9.47224 15.3472 10 15.8333C10.5278 15.3611 11.1945 14.7639 12 14.0417C12.8056 13.3194 13.5834 12.5382 14.3334 11.6979C15.0834 10.8576 15.7292 9.99652 16.2709 9.11458C16.8125 8.23263 17.0834 7.39583 17.0834 6.60416C17.0834 5.68749 16.7882 4.93402 16.1979 4.34374C15.6077 3.75347 14.8611 3.45833 13.9584 3.45833C13.2639 3.45833 12.6146 3.67013 12.0104 4.09374C11.4063 4.51736 10.9028 5.07638 10.5 5.77083C10.4306 5.88194 10.3542 5.9618 10.2709 6.01041C10.1875 6.05902 10.0903 6.08333 9.97919 6.08333C9.86808 6.08333 9.76738 6.05902 9.6771 6.01041C9.58683 5.9618 9.51391 5.88194 9.45835 5.77083V5.77083Z" fill="#F1F1F1"/>
</svg>
