<svg width="20" height="20" viewBox="0 0 20 20" fill="none" xmlns="http://www.w3.org/2000/svg">
<path d="M9.43752 14.1667H10.6875V9.16667H9.43752V14.1667ZM10 7.625C10.1945 7.625 10.3577 7.5625 10.4896 7.4375C10.6215 7.3125 10.6875 7.15278 10.6875 6.95833C10.6875 6.76389 10.6215 6.59722 10.4896 6.45833C10.3577 6.31944 10.1945 6.25 10 6.25C9.80558 6.25 9.64238 6.31944 9.51044 6.45833C9.37849 6.59722 9.31252 6.76389 9.31252 6.95833C9.31252 7.15278 9.37849 7.3125 9.51044 7.4375C9.64238 7.5625 9.80558 7.625 10 7.625V7.625ZM10 18.3333C8.86113 18.3333 7.78474 18.1146 6.77085 17.6771C5.75696 17.2396 4.87155 16.6424 4.1146 15.8854C3.35766 15.1285 2.76044 14.2431 2.32294 13.2292C1.88544 12.2153 1.66669 11.1319 1.66669 9.97917C1.66669 8.84028 1.88544 7.76389 2.32294 6.75C2.76044 5.73611 3.35766 4.85417 4.1146 4.10417C4.87155 3.35417 5.75696 2.76042 6.77085 2.32292C7.78474 1.88542 8.86808 1.66667 10.0209 1.66667C11.1597 1.66667 12.2361 1.88542 13.25 2.32292C14.2639 2.76042 15.1459 3.35417 15.8959 4.10417C16.6459 4.85417 17.2396 5.73611 17.6771 6.75C18.1146 7.76389 18.3334 8.84722 18.3334 10C18.3334 11.1389 18.1146 12.2153 17.6771 13.2292C17.2396 14.2431 16.6459 15.1285 15.8959 15.8854C15.1459 16.6424 14.2639 17.2396 13.25 17.6771C12.2361 18.1146 11.1528 18.3333 10 18.3333ZM10.0209 17.0833C11.9792 17.0833 13.6459 16.3924 15.0209 15.0104C16.3959 13.6285 17.0834 11.9514 17.0834 9.97917C17.0834 8.02083 16.3959 6.35417 15.0209 4.97917C13.6459 3.60417 11.9722 2.91667 10 2.91667C8.04169 2.91667 6.37155 3.60417 4.9896 4.97917C3.60766 6.35417 2.91669 8.02778 2.91669 10C2.91669 11.9583 3.60766 13.6285 4.9896 15.0104C6.37155 16.3924 8.04863 17.0833 10.0209 17.0833Z" fill="#CB89FF"/>
</svg>
