<svg width="20" height="20" viewBox="0 0 20 20" fill="none" xmlns="http://www.w3.org/2000/svg">
<path d="M9.99998 9.97916C9.08331 9.97916 8.33331 9.6875 7.74998 9.10416C7.16665 8.52083 6.87498 7.77083 6.87498 6.85416C6.87498 5.9375 7.16665 5.1875 7.74998 4.60416C8.33331 4.02083 9.08331 3.72916 9.99998 3.72916C10.9166 3.72916 11.6666 4.02083 12.25 4.60416C12.8333 5.1875 13.125 5.9375 13.125 6.85416C13.125 7.77083 12.8333 8.52083 12.25 9.10416C11.6666 9.6875 10.9166 9.97916 9.99998 9.97916V9.97916ZM15.4166 16.6667H4.58331C4.23609 16.6667 3.94095 16.5451 3.6979 16.3021C3.45484 16.059 3.33331 15.7639 3.33331 15.4167V14.7083C3.33331 14.1806 3.46526 13.7292 3.72915 13.3542C3.99304 12.9792 4.33331 12.6944 4.74998 12.5C5.68054 12.0833 6.5729 11.7708 7.42706 11.5625C8.28123 11.3542 9.13887 11.25 9.99998 11.25C10.8611 11.25 11.7153 11.3576 12.5625 11.5729C13.4097 11.7882 14.2986 12.0972 15.2291 12.5C15.6597 12.6944 16.0069 12.9792 16.2708 13.3542C16.5347 13.7292 16.6666 14.1806 16.6666 14.7083V15.4167C16.6666 15.7639 16.5451 16.059 16.3021 16.3021C16.059 16.5451 15.7639 16.6667 15.4166 16.6667ZM4.58331 15.4167H15.4166V14.7083C15.4166 14.4861 15.3507 14.2743 15.2187 14.0729C15.0868 13.8715 14.9236 13.7222 14.7291 13.625C13.8403 13.1944 13.0278 12.8993 12.2916 12.7396C11.5555 12.5799 10.7916 12.5 9.99998 12.5C9.20831 12.5 8.43748 12.5799 7.68748 12.7396C6.93748 12.8993 6.12498 13.1944 5.24998 13.625C5.05554 13.7222 4.89581 13.8715 4.77081 14.0729C4.64581 14.2743 4.58331 14.4861 4.58331 14.7083V15.4167ZM9.99998 8.72916C10.5416 8.72916 10.9896 8.55208 11.3437 8.19791C11.6979 7.84375 11.875 7.39583 11.875 6.85416C11.875 6.3125 11.6979 5.86458 11.3437 5.51041C10.9896 5.15625 10.5416 4.97916 9.99998 4.97916C9.45831 4.97916 9.0104 5.15625 8.65623 5.51041C8.30206 5.86458 8.12498 6.3125 8.12498 6.85416C8.12498 7.39583 8.30206 7.84375 8.65623 8.19791C9.0104 8.55208 9.45831 8.72916 9.99998 8.72916Z" fill="#CB89FF"/>
</svg>
