<svg width="20" height="20" viewBox="0 0 20 20" fill="none" xmlns="http://www.w3.org/2000/svg">
<path d="M11.375 18.3333H8.62502C8.47224 18.3333 8.33683 18.2847 8.21877 18.1875C8.10072 18.0903 8.0278 17.9653 8.00002 17.8125L7.66669 15.7083C7.4028 15.6111 7.12502 15.4792 6.83335 15.3125C6.54169 15.1458 6.28474 14.9722 6.06252 14.7917L4.12502 15.6875C3.97224 15.7569 3.81947 15.7674 3.66669 15.7188C3.51391 15.6701 3.39585 15.5694 3.31252 15.4167L1.93752 12.9792C1.85419 12.8403 1.83335 12.6944 1.87502 12.5417C1.91669 12.3889 2.00002 12.2639 2.12502 12.1667L3.91669 10.8542C3.88891 10.7292 3.87155 10.5868 3.8646 10.4271C3.85766 10.2674 3.85419 10.125 3.85419 10C3.85419 9.875 3.85766 9.73264 3.8646 9.57292C3.87155 9.4132 3.88891 9.27083 3.91669 9.14583L2.12502 7.83333C2.00002 7.73611 1.91669 7.61111 1.87502 7.45833C1.83335 7.30556 1.85419 7.15972 1.93752 7.02083L3.31252 4.58333C3.39585 4.43056 3.51391 4.32986 3.66669 4.28125C3.81947 4.23264 3.97224 4.24306 4.12502 4.3125L6.06252 5.20833C6.28474 5.02778 6.54169 4.85417 6.83335 4.6875C7.12502 4.52083 7.4028 4.39583 7.66669 4.3125L8.00002 2.1875C8.0278 2.03472 8.10072 1.90972 8.21877 1.8125C8.33683 1.71528 8.47224 1.66667 8.62502 1.66667H11.375C11.5278 1.66667 11.6632 1.71528 11.7813 1.8125C11.8993 1.90972 11.9722 2.03472 12 2.1875L12.3334 4.29167C12.5972 4.38889 12.8785 4.51736 13.1771 4.67708C13.4757 4.83681 13.7292 5.01389 13.9375 5.20833L15.875 4.3125C16.0278 4.24306 16.1806 4.23264 16.3334 4.28125C16.4861 4.32986 16.6042 4.43056 16.6875 4.58333L18.0625 7C18.1459 7.13889 18.1702 7.2882 18.1354 7.44792C18.1007 7.60764 18.0139 7.73611 17.875 7.83333L16.0834 9.10417C16.1111 9.24306 16.1285 9.39236 16.1354 9.55208C16.1424 9.71181 16.1459 9.86111 16.1459 10C16.1459 10.1389 16.1424 10.2847 16.1354 10.4375C16.1285 10.5903 16.1111 10.7361 16.0834 10.875L17.875 12.1667C18 12.2639 18.0834 12.3889 18.125 12.5417C18.1667 12.6944 18.1459 12.8403 18.0625 12.9792L16.6875 15.4167C16.6042 15.5694 16.4861 15.6701 16.3334 15.7188C16.1806 15.7674 16.0278 15.7569 15.875 15.6875L13.9375 14.7917C13.7153 14.9722 13.4618 15.1493 13.1771 15.3229C12.8924 15.4965 12.6111 15.625 12.3334 15.7083L12 17.8125C11.9722 17.9653 11.8993 18.0903 11.7813 18.1875C11.6632 18.2847 11.5278 18.3333 11.375 18.3333V18.3333ZM10 12.7083C10.75 12.7083 11.3889 12.4444 11.9167 11.9167C12.4445 11.3889 12.7084 10.75 12.7084 10C12.7084 9.25 12.4445 8.61111 11.9167 8.08333C11.3889 7.55556 10.75 7.29167 10 7.29167C9.25002 7.29167 8.61113 7.55556 8.08335 8.08333C7.55558 8.61111 7.29169 9.25 7.29169 10C7.29169 10.75 7.55558 11.3889 8.08335 11.9167C8.61113 12.4444 9.25002 12.7083 10 12.7083ZM10 11.4583C9.59724 11.4583 9.25349 11.316 8.96877 11.0313C8.68405 10.7465 8.54169 10.4028 8.54169 10C8.54169 9.59722 8.68405 9.25347 8.96877 8.96875C9.25349 8.68403 9.59724 8.54167 10 8.54167C10.4028 8.54167 10.7465 8.68403 11.0313 8.96875C11.316 9.25347 11.4584 9.59722 11.4584 10C11.4584 10.4028 11.316 10.7465 11.0313 11.0313C10.7465 11.316 10.4028 11.4583 10 11.4583ZM9.08335 17.0833H10.9167L11.2084 14.75C11.6667 14.6389 12.1007 14.4653 12.5104 14.2292C12.9202 13.9931 13.2917 13.7083 13.625 13.375L15.8334 14.3333L16.6667 12.8333L14.7084 11.3958C14.7639 11.1597 14.809 10.9271 14.8438 10.6979C14.8785 10.4688 14.8959 10.2361 14.8959 10C14.8959 9.76389 14.882 9.53125 14.8542 9.30208C14.8264 9.07292 14.7778 8.84028 14.7084 8.60417L16.6667 7.16667L15.8334 5.66667L13.625 6.625C13.3056 6.26389 12.9445 5.96181 12.5417 5.71875C12.1389 5.4757 11.6945 5.31945 11.2084 5.25L10.9167 2.91667H9.08335L8.79169 5.25C8.31946 5.34722 7.87849 5.51389 7.46877 5.75C7.05905 5.98611 6.69447 6.27778 6.37502 6.625L4.16669 5.66667L3.33335 7.16667L5.29169 8.60417C5.23613 8.84028 5.19099 9.07292 5.15627 9.30208C5.12155 9.53125 5.10419 9.76389 5.10419 10C5.10419 10.2361 5.12155 10.4688 5.15627 10.6979C5.19099 10.9271 5.23613 11.1597 5.29169 11.3958L3.33335 12.8333L4.16669 14.3333L6.37502 13.375C6.70835 13.7083 7.07988 13.9931 7.4896 14.2292C7.89933 14.4653 8.33335 14.6389 8.79169 14.75L9.08335 17.0833Z" fill="#F1F1F1"/>
</svg>
