<svg width="20" height="20" viewBox="0 0 20 20" fill="none" xmlns="http://www.w3.org/2000/svg">
<path d="M12.5417 17.0208C12.3194 17.0903 12.1181 17.0556 11.9375 16.9167C11.7569 16.7778 11.6667 16.5903 11.6667 16.3542C11.6667 16.2431 11.6979 16.1424 11.7604 16.0521C11.8229 15.9618 11.9097 15.9028 12.0208 15.875C13.2847 15.4306 14.3056 14.6736 15.0833 13.6042C15.8611 12.5347 16.25 11.3264 16.25 9.97917C16.25 8.63195 15.8611 7.42014 15.0833 6.34375C14.3056 5.26736 13.2847 4.51389 12.0208 4.08333C11.9097 4.05556 11.8229 3.99306 11.7604 3.89583C11.6979 3.79861 11.6667 3.69444 11.6667 3.58333C11.6667 3.34722 11.7604 3.16319 11.9479 3.03125C12.1354 2.89931 12.3333 2.86806 12.5417 2.9375C14.0278 3.46528 15.2257 4.37153 16.1354 5.65625C17.0451 6.94097 17.5 8.38195 17.5 9.97917C17.5 11.5764 17.0451 13.0174 16.1354 14.3021C15.2257 15.5868 14.0278 16.4931 12.5417 17.0208ZM3.125 12.5C2.94444 12.5 2.79514 12.441 2.67708 12.3229C2.55903 12.2049 2.5 12.0556 2.5 11.875V8.125C2.5 7.94444 2.55903 7.79514 2.67708 7.67708C2.79514 7.55903 2.94444 7.5 3.125 7.5H5.83333L8.9375 4.39583C9.13194 4.20139 9.35764 4.15625 9.61458 4.26042C9.87153 4.36458 10 4.55556 10 4.83333V15.1667C10 15.4444 9.87153 15.6354 9.61458 15.7396C9.35764 15.8438 9.13194 15.7986 8.9375 15.6042L5.83333 12.5H3.125ZM11.25 13.5V6.47917C12 6.71528 12.6042 7.15972 13.0625 7.8125C13.5208 8.46528 13.75 9.19444 13.75 10C13.75 10.8194 13.5208 11.5486 13.0625 12.1875C12.6042 12.8264 12 13.2639 11.25 13.5ZM8.75 6.5L6.39583 8.75H3.75V11.25H6.39583L8.75 13.5208V6.5Z" fill="#F1F1F1"/>
</svg>
